<mxfile host="app.diagrams.net" modified="2020-12-22T08:17:25.704Z" agent="5.0 (X11; Linux x86_64) AppleWebKit/537.36 (KHTML, like Gecko) Chrome/87.0.4280.88 Safari/537.36" etag="kwsAwv_XsM8JWVHGq3HG" version="14.0.4" type="github">
  <diagram id="kgpKYQtTHZ0yAKxKKP6v" name="Page-1">
    <mxGraphModel dx="1658" dy="945" grid="1" gridSize="10" guides="1" tooltips="1" connect="1" arrows="1" fold="1" page="1" pageScale="1" pageWidth="850" pageHeight="1100" math="0" shadow="0">
      <root>
        <mxCell id="0" />
        <mxCell id="1" parent="0" />
        <mxCell id="FEfZ4JujXCxxMWSFmUVo-5" style="edgeStyle=orthogonalEdgeStyle;rounded=0;orthogonalLoop=1;jettySize=auto;html=1;exitX=0.5;exitY=0;exitDx=0;exitDy=0;endArrow=none;endFill=0;fontSize=14;" edge="1" parent="1" source="FEfZ4JujXCxxMWSFmUVo-1" target="fmCBnFZ5IJoMjJcO7a_d-1">
          <mxGeometry relative="1" as="geometry" />
        </mxCell>
        <mxCell id="FEfZ4JujXCxxMWSFmUVo-1" value="" style="rounded=0;whiteSpace=wrap;html=1;fontSize=14;fontStyle=1" vertex="1" parent="1">
          <mxGeometry x="527.5" y="350" width="192.5" height="240" as="geometry" />
        </mxCell>
        <mxCell id="fmCBnFZ5IJoMjJcO7a_d-1" value="第一章：人体步行膝关节力矩估计和可穿戴传感系统的背景研究" style="rounded=0;whiteSpace=wrap;html=1;fontSize=14;" parent="1" vertex="1">
          <mxGeometry x="297.5" y="280" width="415" height="30" as="geometry" />
        </mxCell>
        <mxCell id="FEfZ4JujXCxxMWSFmUVo-3" style="edgeStyle=orthogonalEdgeStyle;rounded=0;orthogonalLoop=1;jettySize=auto;html=1;exitX=0.5;exitY=1;exitDx=0;exitDy=0;endArrow=none;endFill=0;fontSize=14;entryX=0.5;entryY=0;entryDx=0;entryDy=0;" edge="1" parent="1" source="fmCBnFZ5IJoMjJcO7a_d-2" target="fmCBnFZ5IJoMjJcO7a_d-6">
          <mxGeometry relative="1" as="geometry">
            <Array as="points">
              <mxPoint x="386" y="610" />
              <mxPoint x="510" y="610" />
            </Array>
          </mxGeometry>
        </mxCell>
        <mxCell id="FEfZ4JujXCxxMWSFmUVo-4" style="edgeStyle=orthogonalEdgeStyle;rounded=0;orthogonalLoop=1;jettySize=auto;html=1;exitX=0.5;exitY=0;exitDx=0;exitDy=0;endArrow=none;endFill=0;fontSize=14;" edge="1" parent="1" source="fmCBnFZ5IJoMjJcO7a_d-2" target="fmCBnFZ5IJoMjJcO7a_d-1">
          <mxGeometry relative="1" as="geometry" />
        </mxCell>
        <mxCell id="fmCBnFZ5IJoMjJcO7a_d-2" value="" style="rounded=0;whiteSpace=wrap;html=1;fontSize=14;" parent="1" vertex="1">
          <mxGeometry x="292.5" y="350" width="187.5" height="240" as="geometry" />
        </mxCell>
        <mxCell id="fmCBnFZ5IJoMjJcO7a_d-3" value="第二章： 系统硬件设计" style="text;html=1;align=center;verticalAlign=middle;resizable=0;points=[];autosize=1;fontSize=14;" parent="1" vertex="1">
          <mxGeometry x="305" y="360" width="160" height="20" as="geometry" />
        </mxCell>
        <mxCell id="fmCBnFZ5IJoMjJcO7a_d-19" style="edgeStyle=orthogonalEdgeStyle;rounded=0;orthogonalLoop=1;jettySize=auto;html=1;entryX=0.5;entryY=0;entryDx=0;entryDy=0;endArrow=none;endFill=0;fontSize=14;exitX=0.5;exitY=1;exitDx=0;exitDy=0;" parent="1" source="FEfZ4JujXCxxMWSFmUVo-1" target="fmCBnFZ5IJoMjJcO7a_d-6" edge="1">
          <mxGeometry relative="1" as="geometry">
            <mxPoint x="633" y="650" as="sourcePoint" />
            <Array as="points">
              <mxPoint x="624" y="610" />
              <mxPoint x="510" y="610" />
            </Array>
          </mxGeometry>
        </mxCell>
        <mxCell id="fmCBnFZ5IJoMjJcO7a_d-6" value="第四章：基于可穿戴传感系统的人体步行膝关节力矩估计实验研究" style="rounded=0;whiteSpace=wrap;html=1;fontSize=14;" parent="1" vertex="1">
          <mxGeometry x="297.5" y="630" width="425" height="30" as="geometry" />
        </mxCell>
        <mxCell id="fmCBnFZ5IJoMjJcO7a_d-21" style="edgeStyle=orthogonalEdgeStyle;rounded=0;orthogonalLoop=1;jettySize=auto;html=1;exitX=0.5;exitY=0;exitDx=0;exitDy=0;entryX=0.5;entryY=0;entryDx=0;entryDy=0;endArrow=none;endFill=0;fontSize=14;" parent="1" source="fmCBnFZ5IJoMjJcO7a_d-8" target="fmCBnFZ5IJoMjJcO7a_d-12" edge="1">
          <mxGeometry relative="1" as="geometry" />
        </mxCell>
        <mxCell id="fmCBnFZ5IJoMjJcO7a_d-8" value="数&lt;br style=&quot;font-size: 14px;&quot;&gt;据&lt;br style=&quot;font-size: 14px;&quot;&gt;采&lt;br style=&quot;font-size: 14px;&quot;&gt;集&lt;br style=&quot;font-size: 14px;&quot;&gt;模&lt;br style=&quot;font-size: 14px;&quot;&gt;块&lt;br style=&quot;font-size: 14px;&quot;&gt;硬&lt;br style=&quot;font-size: 14px;&quot;&gt;件&lt;br style=&quot;font-size: 14px;&quot;&gt;设&lt;br style=&quot;font-size: 14px;&quot;&gt;计" style="rounded=0;whiteSpace=wrap;html=1;fontSize=14;" parent="1" vertex="1">
          <mxGeometry x="309" y="410" width="23" height="170" as="geometry" />
        </mxCell>
        <mxCell id="fmCBnFZ5IJoMjJcO7a_d-12" value="中&lt;br style=&quot;font-size: 14px;&quot;&gt;央&lt;br style=&quot;font-size: 14px;&quot;&gt;控&lt;br style=&quot;font-size: 14px;&quot;&gt;制&lt;br style=&quot;font-size: 14px;&quot;&gt;器&lt;br style=&quot;font-size: 14px;&quot;&gt;硬&lt;br style=&quot;font-size: 14px;&quot;&gt;件&lt;br style=&quot;font-size: 14px;&quot;&gt;设&lt;br style=&quot;font-size: 14px;&quot;&gt;计" style="rounded=0;whiteSpace=wrap;html=1;fontSize=14;" parent="1" vertex="1">
          <mxGeometry x="443" y="410" width="22" height="170" as="geometry" />
        </mxCell>
        <mxCell id="fmCBnFZ5IJoMjJcO7a_d-24" value="第三章： 系统软件设计" style="text;html=1;align=center;verticalAlign=middle;resizable=0;points=[];autosize=1;fontSize=14;" parent="1" vertex="1">
          <mxGeometry x="538.5" y="360" width="160" height="20" as="geometry" />
        </mxCell>
        <mxCell id="fmCBnFZ5IJoMjJcO7a_d-25" style="edgeStyle=orthogonalEdgeStyle;rounded=0;orthogonalLoop=1;jettySize=auto;html=1;exitX=0.5;exitY=0;exitDx=0;exitDy=0;entryX=0.5;entryY=0;entryDx=0;entryDy=0;endArrow=none;endFill=0;fontSize=14;" parent="1" source="fmCBnFZ5IJoMjJcO7a_d-26" target="fmCBnFZ5IJoMjJcO7a_d-27" edge="1">
          <mxGeometry relative="1" as="geometry" />
        </mxCell>
        <mxCell id="fmCBnFZ5IJoMjJcO7a_d-26" value="数&lt;br style=&quot;font-size: 14px;&quot;&gt;据&lt;br style=&quot;font-size: 14px;&quot;&gt;采&lt;br style=&quot;font-size: 14px;&quot;&gt;集&lt;br style=&quot;font-size: 14px;&quot;&gt;模&lt;br style=&quot;font-size: 14px;&quot;&gt;块&lt;br style=&quot;font-size: 14px;&quot;&gt;&lt;span style=&quot;font-size: 14px;&quot;&gt;软&lt;br style=&quot;font-size: 14px;&quot;&gt;件&lt;br style=&quot;font-size: 14px;&quot;&gt;&lt;/span&gt;设&lt;br style=&quot;font-size: 14px;&quot;&gt;计" style="rounded=0;whiteSpace=wrap;html=1;fontSize=14;" parent="1" vertex="1">
          <mxGeometry x="545.5" y="410" width="23" height="170" as="geometry" />
        </mxCell>
        <mxCell id="fmCBnFZ5IJoMjJcO7a_d-27" value="中&lt;br style=&quot;font-size: 14px;&quot;&gt;央&lt;br style=&quot;font-size: 14px;&quot;&gt;控&lt;br style=&quot;font-size: 14px;&quot;&gt;制&lt;br style=&quot;font-size: 14px;&quot;&gt;器&lt;br style=&quot;font-size: 14px;&quot;&gt;&lt;span style=&quot;font-size: 14px;&quot;&gt;软&lt;br style=&quot;font-size: 14px;&quot;&gt;件&lt;br style=&quot;font-size: 14px;&quot;&gt;&lt;/span&gt;设&lt;br style=&quot;font-size: 14px;&quot;&gt;计" style="rounded=0;whiteSpace=wrap;html=1;fontSize=14;" parent="1" vertex="1">
          <mxGeometry x="679.5" y="410" width="22" height="170" as="geometry" />
        </mxCell>
      </root>
    </mxGraphModel>
  </diagram>
</mxfile>
